<svg width="122" height="18" viewBox="0 0 122 18" fill="none" xmlns="http://www.w3.org/2000/svg">
<path d="M7.01109 13.8054C3.19513 13.8054 0.441162 10.9434 0.441162 7.25344C0.441162 3.58147 3.19513 0.719504 7.01109 0.719504C9.81906 0.719504 12.231 2.44749 13.005 4.98546C13.077 5.27346 12.915 5.45345 12.627 5.45345H10.8811C10.6471 5.45345 10.5031 5.34546 10.3951 5.12946C9.83706 3.90547 8.52308 3.13148 7.01109 3.13148C4.54512 3.13148 2.92514 4.84146 2.92514 7.25344C2.92514 9.68341 4.54512 11.3934 7.01109 11.3934C8.52308 11.3934 9.83706 10.6194 10.3951 9.39541C10.5031 9.17941 10.6471 9.05342 10.8811 9.05342H12.627C12.915 9.05342 13.077 9.23341 13.005 9.50341C12.249 12.0414 9.83706 13.8054 7.01109 13.8054Z" fill="#4C4C4C"/>
<path d="M14.8762 13.5534C14.6062 13.5534 14.4442 13.4094 14.4442 13.1394V1.0255C14.4442 0.755504 14.6062 0.593506 14.8762 0.593506H16.3522C16.6221 0.593506 16.7661 0.755504 16.7661 1.0255V13.1394C16.7661 13.4094 16.6221 13.5534 16.3522 13.5534H14.8762Z" fill="#4C4C4C"/>
<path d="M19.3234 3.29348C19.0534 3.29348 18.8914 3.14948 18.8914 2.87948V1.3855C18.8914 1.1155 19.0534 0.953502 19.3234 0.953502H20.7994C21.0694 0.953502 21.2134 1.1155 21.2134 1.3855V2.87948C21.2134 3.14948 21.0694 3.29348 20.7994 3.29348H19.3234ZM19.3234 13.5534C19.0534 13.5534 18.8914 13.4094 18.8914 13.1394V4.98546C18.8914 4.71546 19.0534 4.55346 19.3234 4.55346H20.7994C21.0694 4.55346 21.2134 4.71546 21.2134 4.98546V13.1394C21.2134 13.4094 21.0694 13.5534 20.7994 13.5534H19.3234Z" fill="#4C4C4C"/>
<path d="M32.4645 4.31947C34.1745 4.31947 35.2725 5.41745 35.2725 7.48743V13.1394C35.2725 13.4094 35.1105 13.5534 34.8405 13.5534H33.3825C33.0945 13.5534 32.9505 13.4094 32.9505 13.1394V7.66743C32.9505 6.76744 32.4105 6.46144 31.7985 6.46144C31.1685 6.46144 30.4665 6.82144 30.4665 7.99143V13.1394C30.4665 13.4094 30.3225 13.5534 30.0345 13.5534H28.5766C28.3066 13.5534 28.1446 13.4094 28.1446 13.1394V7.66743C28.1446 6.76744 27.6226 6.46144 26.9926 6.46144C26.3626 6.46144 25.6606 6.82144 25.6606 7.99143V13.1394C25.6606 13.4094 25.5166 13.5534 25.2466 13.5534H23.7706C23.5006 13.5534 23.3386 13.4094 23.3386 13.1394V4.98546C23.3386 4.71546 23.5006 4.55346 23.7706 4.55346H25.2466C25.5166 4.55346 25.6606 4.71546 25.6606 4.98546V5.43545C26.1466 4.71546 26.9206 4.31947 27.8206 4.31947C28.7566 4.31947 29.5305 4.73346 29.9985 5.50745C30.6105 4.73346 31.4205 4.31947 32.4645 4.31947Z" fill="#4C4C4C"/>
<path d="M40.7553 4.31947C42.7352 4.31947 44.4092 5.50745 44.4092 7.84743V13.1394C44.4092 13.4094 44.2652 13.5714 43.9772 13.5714H42.5732C42.3032 13.5714 42.1412 13.4094 42.1412 13.1394V12.7794C41.6192 13.4094 40.8453 13.8054 39.7113 13.8054C38.1093 13.8054 36.6693 12.8694 36.6693 10.9794C36.6693 9.08942 38.1093 8.13543 39.7113 8.13543C40.8453 8.13543 41.6192 8.47742 42.1412 8.94542V7.97343C42.1412 6.91144 41.6012 6.46144 40.7553 6.46144C40.0713 6.46144 39.5673 6.74944 39.4233 7.23544C39.3153 7.48743 39.2253 7.61343 38.9733 7.61343H37.5333C37.2633 7.61343 37.0833 7.46943 37.1013 7.18144C37.3353 5.32746 38.9013 4.31947 40.7553 4.31947ZM40.4853 12.0954C41.5112 12.0954 42.1412 11.6274 42.1412 10.9794C42.1412 10.2774 41.5112 9.86341 40.4853 9.86341C39.4773 9.86341 38.9913 10.3314 38.9913 10.9794C38.9913 11.6274 39.4773 12.0954 40.4853 12.0954Z" fill="#4C4C4C"/>
<path d="M50.5254 4.55346C50.8134 4.55346 50.9573 4.71546 50.9573 4.98546V6.37144C50.9573 6.64144 50.8134 6.78544 50.5254 6.78544H49.4094V13.1394C49.4094 13.4094 49.2654 13.5534 48.9774 13.5534H47.5194C47.2494 13.5534 47.0874 13.4094 47.0874 13.1394V6.78544H45.9714C45.6834 6.78544 45.5394 6.64144 45.5394 6.37144V4.98546C45.5394 4.71546 45.6834 4.55346 45.9714 4.55346H47.0874V2.10549C47.0874 1.83549 47.2494 1.67349 47.5194 1.67349H48.9774C49.2654 1.67349 49.4094 1.83549 49.4094 2.10549V4.55346H50.5254Z" fill="#4C4C4C"/>
<path d="M56.3805 4.31947C59.0445 4.31947 60.8804 6.40744 60.8804 9.07142C60.8804 9.26941 60.8624 9.44941 60.8445 9.62941C60.8265 9.89941 60.6465 10.0254 60.3945 10.0254H54.0225C54.3465 11.3034 55.3185 11.8794 56.4705 11.8794C57.1545 11.8794 57.7485 11.6094 58.1085 11.2314C58.2705 11.0694 58.4145 10.9794 58.6305 10.9794H60.0705C60.3945 10.9794 60.5565 11.1774 60.4305 11.4474C59.7465 12.9594 58.2705 13.8054 56.4345 13.8054C53.5005 13.8054 51.6105 11.7534 51.6105 9.05342C51.6105 6.38944 53.5545 4.31947 56.3805 4.31947ZM54.0225 8.18943H58.5585C58.2885 6.91144 57.3345 6.40744 56.3625 6.40744C55.1385 6.40744 54.2925 7.07344 54.0225 8.18943Z" fill="#4C4C4C"/>
<path d="M77.4434 13.0854C77.5334 13.3914 77.3894 13.5534 77.0834 13.5534H75.2834C75.0314 13.5534 74.8694 13.4454 74.7974 13.2114L74.1854 11.3034H69.3435L68.7495 13.2114C68.6775 13.4454 68.4975 13.5534 68.2635 13.5534H66.4635C66.1575 13.5534 65.9955 13.3914 66.1035 13.0854L70.1174 1.3135C70.1894 1.0795 70.3694 0.953502 70.6034 0.953502H72.9434C73.1774 0.953502 73.3574 1.0795 73.4294 1.3135L77.4434 13.0854ZM70.0994 8.98142H73.4474L71.7734 3.70747L70.0994 8.98142Z" fill="#4C4C4C"/>
<path d="M83.4791 4.31947C85.1531 4.31947 86.413 5.59745 86.413 7.81143V13.1394C86.413 13.4094 86.251 13.5534 85.981 13.5534H84.5051C84.2351 13.5534 84.0911 13.4094 84.0911 13.1394V7.99143C84.0911 6.94744 83.4791 6.46144 82.6511 6.46144C81.7511 6.46144 81.0311 7.00144 81.0311 8.35142V13.1394C81.0311 13.4094 80.8871 13.5534 80.5991 13.5534H79.1411C78.8711 13.5534 78.7091 13.4094 78.7091 13.1394V4.98546C78.7091 4.71546 78.8711 4.55346 79.1411 4.55346H80.5991C80.8871 4.55346 81.0311 4.71546 81.0311 4.98546V5.48945C81.5351 4.73346 82.3631 4.31947 83.4791 4.31947Z" fill="#4C4C4C"/>
<path d="M97.019 4.55346C97.307 4.55346 97.451 4.71546 97.451 4.98546V13.1394C97.451 16.0913 95.111 17.4053 92.861 17.4053C90.6831 17.4053 88.6491 16.3073 88.3791 14.2554C88.3611 13.9674 88.5411 13.8054 88.8111 13.8054H90.2871C90.5391 13.8054 90.6651 13.9494 90.7551 14.1834C90.9531 14.8134 91.6731 15.3354 92.861 15.3354C94.301 15.3354 95.183 14.5434 95.183 13.1394V12.1854C94.535 13.0134 93.563 13.5354 92.2131 13.5354C89.8011 13.5354 87.8211 11.4654 87.8211 8.92742C87.8211 6.38944 89.8011 4.31947 92.2131 4.31947C93.563 4.31947 94.535 4.84146 95.183 5.66945V4.98546C95.183 4.71546 95.345 4.55346 95.615 4.55346H97.019ZM92.6631 11.3754C94.121 11.3754 95.183 10.3494 95.183 8.92742C95.183 7.48743 94.121 6.46144 92.6631 6.46144C91.2051 6.46144 90.1431 7.48743 90.1431 8.92742C90.1431 10.3494 91.2051 11.3754 92.6631 11.3754Z" fill="#4C4C4C"/>
<path d="M103.859 4.31947C106.522 4.31947 108.358 6.40744 108.358 9.07142C108.358 9.26941 108.34 9.44941 108.322 9.62941C108.304 9.89941 108.124 10.0254 107.872 10.0254H101.501C101.825 11.3034 102.797 11.8794 103.949 11.8794C104.633 11.8794 105.227 11.6094 105.586 11.2314C105.748 11.0694 105.892 10.9794 106.108 10.9794H107.548C107.872 10.9794 108.034 11.1774 107.908 11.4474C107.224 12.9594 105.748 13.8054 103.913 13.8054C100.979 13.8054 99.0886 11.7534 99.0886 9.05342C99.0886 6.38944 101.033 4.31947 103.859 4.31947ZM101.501 8.18943H106.036C105.766 6.91144 104.812 6.40744 103.841 6.40744C102.617 6.40744 101.771 7.07344 101.501 8.18943Z" fill="#4C4C4C"/>
<path d="M110.36 13.5534C110.09 13.5534 109.928 13.4094 109.928 13.1394V1.0255C109.928 0.755504 110.09 0.593506 110.36 0.593506H111.836C112.106 0.593506 112.25 0.755504 112.25 1.0255V13.1394C112.25 13.4094 112.106 13.5534 111.836 13.5534H110.36Z" fill="#4C4C4C"/>
<path d="M116.427 7.18144C116.427 8.74742 121.287 7.46943 121.287 10.9434C121.287 12.8694 119.631 13.8054 117.633 13.8054C115.797 13.8054 114.231 12.9414 114.033 11.1414C113.997 10.8534 114.177 10.6914 114.447 10.6914H115.887C116.139 10.6914 116.229 10.8354 116.337 11.0694C116.499 11.5374 116.985 11.7534 117.633 11.7534C118.497 11.7534 118.965 11.4654 118.965 10.9434C118.965 9.39541 114.105 10.6374 114.105 7.18144C114.105 5.27346 115.761 4.31947 117.633 4.31947C119.325 4.31947 120.855 5.16546 121.071 6.98344C121.107 7.27144 120.927 7.43343 120.657 7.43343H119.217C118.965 7.43343 118.857 7.28943 118.749 7.03744C118.623 6.58744 118.173 6.35345 117.633 6.35345C116.895 6.35345 116.427 6.65944 116.427 7.18144Z" fill="#4C4C4C"/>
</svg>
