<svg width="24" height="24" viewBox="0 0 24 24" fill="none" xmlns="http://www.w3.org/2000/svg">
<mask id="mask0_1_16" style="mask-type:alpha" maskUnits="userSpaceOnUse" x="0" y="0" width="24" height="24">
<rect width="24" height="24" fill="#D9D9D9"/>
</mask>
<g mask="url(#mask0_1_16)">
<path d="M10.45 12.2635L11.8846 13.6981C12.0295 13.8558 12.2147 13.9346 12.4404 13.9346C12.666 13.9346 12.8577 13.8558 13.0154 13.6981L16.5 10.2327V12.025C16.5 12.1545 16.5478 12.266 16.6433 12.3596C16.7388 12.4532 16.8577 12.5 17 12.5C17.1295 12.5 17.2452 12.4522 17.3471 12.3567C17.449 12.2612 17.5 12.1423 17.5 12V9.3077C17.5 9.08847 17.4202 8.89904 17.2606 8.73943C17.101 8.57981 16.9115 8.5 16.6923 8.5H13.975C13.8455 8.5 13.734 8.55096 13.6404 8.65287C13.5468 8.75481 13.5 8.87052 13.5 9C13.5 9.14232 13.5478 9.26122 13.6433 9.35672C13.7388 9.45224 13.8577 9.5 14 9.5H15.7673L12.45 12.8615L11.0154 11.4269C10.8577 11.2654 10.666 11.1846 10.4404 11.1846C10.2147 11.1846 10.0295 11.2654 9.88463 11.4269L7.04615 14.2462C6.94872 14.3526 6.9 14.4737 6.9 14.6096C6.9 14.7455 6.94872 14.8603 7.04615 14.9538C7.15257 15.0641 7.27373 15.1192 7.40963 15.1192C7.54553 15.1192 7.66027 15.0641 7.75385 14.9538L10.45 12.2635ZM5.61538 20C5.15513 20 4.77083 19.8458 4.4625 19.5375C4.15417 19.2292 4 18.8449 4 18.3846V5.61537C4 5.15512 4.15417 4.77083 4.4625 4.4625C4.77083 4.15417 5.15513 4 5.61538 4H18.3846C18.8449 4 19.2292 4.15417 19.5375 4.4625C19.8458 4.77083 20 5.15512 20 5.61537V18.3846C20 18.8449 19.8458 19.2292 19.5375 19.5375C19.2292 19.8458 18.8449 20 18.3846 20H5.61538Z" fill="#FFFAF4"/>
</g>
</svg>
