<svg width="24" height="24" viewBox="0 0 24 24" fill="none" xmlns="http://www.w3.org/2000/svg">
<mask id="mask0_1_36" style="mask-type:alpha" maskUnits="userSpaceOnUse" x="0" y="0" width="24" height="24">
<rect width="24" height="24" fill="#D9D9D9"/>
</mask>
<g mask="url(#mask0_1_36)">
<path d="M13.4058 19.8539L7.67885 13.8769C7.62115 13.8192 7.57692 13.7535 7.54615 13.6798C7.51538 13.6061 7.5 13.525 7.5 13.4366V13.0385C7.5 12.8532 7.56266 12.6979 7.68798 12.5726C7.81329 12.4473 7.96858 12.3846 8.15385 12.3846H10.5C11.5115 12.3846 12.4311 12.0651 13.2587 11.426C14.0862 10.7869 14.509 9.87563 14.5269 8.6923H7C6.85833 8.6923 6.73958 8.64433 6.64375 8.54838C6.54792 8.45241 6.5 8.33349 6.5 8.19162C6.5 8.04977 6.54792 7.93109 6.64375 7.83557C6.73958 7.74006 6.85833 7.6923 7 7.6923H14.4192C14.2128 6.90385 13.7503 6.25802 13.0317 5.7548C12.3131 5.2516 11.4692 5 10.5 5H7C6.85833 5 6.73958 4.95202 6.64375 4.85605C6.54792 4.76008 6.5 4.64118 6.5 4.49933C6.5 4.35746 6.54792 4.23878 6.64375 4.14328C6.73958 4.04776 6.85833 4 7 4H17C17.1417 4 17.2604 4.04798 17.3562 4.14395C17.4521 4.2399 17.5 4.35881 17.5 4.50067C17.5 4.64252 17.4521 4.76121 17.3562 4.85672C17.2604 4.95224 17.1417 5 17 5H13.5577C14.0346 5.28333 14.4481 5.66538 14.7981 6.14615C15.1481 6.62692 15.3667 7.1423 15.4538 7.6923H17C17.1417 7.6923 17.2604 7.74028 17.3562 7.83625C17.4521 7.93222 17.5 8.05113 17.5 8.19298C17.5 8.33484 17.4521 8.45353 17.3562 8.54905C17.2604 8.64455 17.1417 8.6923 17 8.6923H15.5327C15.5276 10.109 15.0212 11.2452 14.0135 12.101C13.0058 12.9567 11.8346 13.3846 10.5 13.3846H8.60192L14.125 19.1462C14.284 19.309 14.3208 19.492 14.2356 19.6952C14.1503 19.8984 13.994 20 13.7665 20C13.6965 20 13.6311 19.9878 13.5702 19.9635C13.5093 19.9391 13.4545 19.9026 13.4058 19.8539Z" fill="#484644"/>
</g>
</svg>
