<svg width="24" height="24" viewBox="0 0 24 24" fill="none" xmlns="http://www.w3.org/2000/svg">
<mask id="mask0_1_66" style="mask-type:alpha" maskUnits="userSpaceOnUse" x="0" y="0" width="24" height="24">
<rect width="24" height="24" fill="#D9D9D9"/>
</mask>
<g mask="url(#mask0_1_66)">
<path d="M7.03843 19C6.57818 19 6.19389 18.8458 5.88556 18.5375C5.57722 18.2292 5.42306 17.8449 5.42306 17.3846V8.40385L3.14228 5.67115C3.03458 5.53012 3.01279 5.383 3.07691 5.2298C3.14101 5.0766 3.26216 5 3.44036 5H18.8077C19.2679 5 19.6522 5.15417 19.9606 5.4625C20.2689 5.77083 20.4231 6.15512 20.4231 6.61537V17.3846C20.4231 17.8449 20.2689 18.2292 19.9606 18.5375C19.6522 18.8458 19.2679 19 18.8077 19H7.03843ZM6.42306 6V17.3846C6.42306 17.5385 6.48716 17.6795 6.61536 17.8077C6.74357 17.9359 6.8846 18 7.03843 18H18.8077C18.9615 18 19.1026 17.9359 19.2308 17.8077C19.359 17.6795 19.4231 17.5385 19.4231 17.3846V6.61537C19.4231 6.46154 19.359 6.32052 19.2308 6.1923C19.1026 6.0641 18.9615 6 18.8077 6H6.42306ZM11.6846 14.1923H16.0769C16.2192 14.1923 16.3381 14.1446 16.4336 14.0491C16.5291 13.9535 16.5769 13.8346 16.5769 13.6923C16.5769 13.55 16.5291 13.4311 16.4336 13.3356C16.3381 13.2401 16.2192 13.1923 16.0769 13.1923H10.5211C10.2891 13.1923 10.1304 13.3003 10.0452 13.5163C9.95991 13.7324 9.9987 13.9218 10.1615 14.0846L12.2231 16.1462C12.3167 16.2398 12.4314 16.2898 12.5673 16.2962C12.7032 16.3026 12.8243 16.2526 12.9308 16.1462C13.0372 16.0398 13.0904 15.9218 13.0904 15.7923C13.0904 15.6628 13.0372 15.5449 12.9308 15.4384L11.6846 14.1923ZM14.1615 9.80768H9.76921C9.62691 9.80768 9.508 9.85543 9.41248 9.95095C9.31696 10.0465 9.26921 10.1654 9.26921 10.3077C9.26921 10.45 9.31696 10.5689 9.41248 10.6644C9.508 10.7599 9.62691 10.8077 9.76921 10.8077H15.325C15.557 10.8077 15.7157 10.6997 15.801 10.4837C15.8862 10.2676 15.8474 10.0782 15.6846 9.91537L13.6231 7.85385C13.5295 7.76025 13.4147 7.71025 13.2788 7.70385C13.1429 7.69743 13.0218 7.74743 12.9154 7.85385C12.809 7.96025 12.7558 8.0782 12.7558 8.2077C12.7558 8.33718 12.809 8.45513 12.9154 8.56155L14.1615 9.80768Z" fill="#484644"/>
</g>
</svg>
