<svg width="24" height="24" viewBox="0 0 24 24" fill="none" xmlns="http://www.w3.org/2000/svg">
<mask id="mask0_1_56" style="mask-type:alpha" maskUnits="userSpaceOnUse" x="0" y="0" width="24" height="24">
<rect width="24" height="24" fill="#D9D9D9"/>
</mask>
<g mask="url(#mask0_1_56)">
<path d="M5.61538 21C5.15513 21 4.77083 20.8458 4.4625 20.5375C4.15417 20.2292 4 19.8449 4 19.3846V6.61538C4 6.15513 4.15417 5.77083 4.4625 5.4625C4.77083 5.15417 5.15513 5 5.61538 5H7.3846V3.3077C7.3846 3.15257 7.43557 3.02403 7.5375 2.9221C7.63942 2.82018 7.76794 2.76923 7.92308 2.76923C8.07821 2.76923 8.20673 2.82018 8.30865 2.9221C8.41057 3.02403 8.46152 3.15257 8.46152 3.3077V5H15.6154V3.26923C15.6154 3.12693 15.6631 3.00802 15.7587 2.9125C15.8542 2.81698 15.9731 2.76923 16.1154 2.76923C16.2577 2.76923 16.3766 2.81698 16.4721 2.9125C16.5676 3.00802 16.6154 3.12693 16.6154 3.26923V5H18.3846C18.8449 5 19.2292 5.15417 19.5375 5.4625C19.8458 5.77083 20 6.15513 20 6.61538V19.3846C20 19.8449 19.8458 20.2292 19.5375 20.5375C19.2292 20.8458 18.8449 21 18.3846 21H5.61538ZM5.61538 20H18.3846C18.5385 20 18.6795 19.9359 18.8077 19.8077C18.9359 19.6795 19 19.5385 19 19.3846V10.6154H5V19.3846C5 19.5385 5.0641 19.6795 5.1923 19.8077C5.32052 19.9359 5.46154 20 5.61538 20ZM5 9.61538H19V6.61538C19 6.46154 18.9359 6.32052 18.8077 6.1923C18.6795 6.0641 18.5385 6 18.3846 6H5.61538C5.46154 6 5.32052 6.0641 5.1923 6.1923C5.0641 6.32052 5 6.46154 5 6.61538V9.61538ZM12 14.1539C11.7936 14.1539 11.6138 14.0772 11.4606 13.924C11.3074 13.7708 11.2308 13.591 11.2308 13.3846C11.2308 13.1782 11.3074 12.9984 11.4606 12.8452C11.6138 12.692 11.7936 12.6154 12 12.6154C12.2064 12.6154 12.3862 12.692 12.5394 12.8452C12.6926 12.9984 12.7692 13.1782 12.7692 13.3846C12.7692 13.591 12.6926 13.7708 12.5394 13.924C12.3862 14.0772 12.2064 14.1539 12 14.1539ZM8 14.1539C7.79358 14.1539 7.61378 14.0772 7.46058 13.924C7.30738 13.7708 7.23077 13.591 7.23077 13.3846C7.23077 13.1782 7.30738 12.9984 7.46058 12.8452C7.61378 12.692 7.79358 12.6154 8 12.6154C8.20642 12.6154 8.38622 12.692 8.53942 12.8452C8.69262 12.9984 8.76923 13.1782 8.76923 13.3846C8.76923 13.591 8.69262 13.7708 8.53942 13.924C8.38622 14.0772 8.20642 14.1539 8 14.1539ZM16 14.1539C15.7936 14.1539 15.6138 14.0772 15.4606 13.924C15.3074 13.7708 15.2308 13.591 15.2308 13.3846C15.2308 13.1782 15.3074 12.9984 15.4606 12.8452C15.6138 12.692 15.7936 12.6154 16 12.6154C16.2064 12.6154 16.3862 12.692 16.5394 12.8452C16.6926 12.9984 16.7692 13.1782 16.7692 13.3846C16.7692 13.591 16.6926 13.7708 16.5394 13.924C16.3862 14.0772 16.2064 14.1539 16 14.1539ZM12 18C11.7936 18 11.6138 17.9234 11.4606 17.7702C11.3074 17.617 11.2308 17.4372 11.2308 17.2308C11.2308 17.0244 11.3074 16.8446 11.4606 16.6914C11.6138 16.5381 11.7936 16.4615 12 16.4615C12.2064 16.4615 12.3862 16.5381 12.5394 16.6914C12.6926 16.8446 12.7692 17.0244 12.7692 17.2308C12.7692 17.4372 12.6926 17.617 12.5394 17.7702C12.3862 17.9234 12.2064 18 12 18ZM8 18C7.79358 18 7.61378 17.9234 7.46058 17.7702C7.30738 17.617 7.23077 17.4372 7.23077 17.2308C7.23077 17.0244 7.30738 16.8446 7.46058 16.6914C7.61378 16.5381 7.79358 16.4615 8 16.4615C8.20642 16.4615 8.38622 16.5381 8.53942 16.6914C8.69262 16.8446 8.76923 17.0244 8.76923 17.2308C8.76923 17.4372 8.69262 17.617 8.53942 17.7702C8.38622 17.9234 8.20642 18 8 18ZM16 18C15.7936 18 15.6138 17.9234 15.4606 17.7702C15.3074 17.617 15.2308 17.4372 15.2308 17.2308C15.2308 17.0244 15.3074 16.8446 15.4606 16.6914C15.6138 16.5381 15.7936 16.4615 16 16.4615C16.2064 16.4615 16.3862 16.5381 16.5394 16.6914C16.6926 16.8446 16.7692 17.0244 16.7692 17.2308C16.7692 17.4372 16.6926 17.617 16.5394 17.7702C16.3862 17.9234 16.2064 18 16 18Z" fill="#484644"/>
</g>
</svg>
