<svg width="24" height="24" viewBox="0 0 24 24" fill="none" xmlns="http://www.w3.org/2000/svg">
<mask id="mask0_1_76" style="mask-type:alpha" maskUnits="userSpaceOnUse" x="0" y="0" width="24" height="24">
<rect width="24" height="24" fill="#D9D9D9"/>
</mask>
<g mask="url(#mask0_1_76)">
<path d="M12.9423 18H11.5C9.41177 18 7.63971 17.2724 6.18383 15.8173C4.72794 14.3622 4 12.591 4 10.5038C4 8.41666 4.72772 6.64423 6.18317 5.18653C7.63861 3.72884 9.41013 3 11.4978 3C12.5416 3 13.5183 3.19519 14.4279 3.58557C15.3375 3.97596 16.1317 4.51058 16.8106 5.18943C17.4894 5.86828 18.024 6.66127 18.4144 7.5684C18.8048 8.47553 19 9.45273 19 10.5C19 12.4128 18.5087 14.1673 17.526 15.7635C16.5433 17.3596 15.2923 18.6866 13.7731 19.7443C13.6833 19.7955 13.5936 19.8237 13.5038 19.8289C13.4141 19.834 13.3282 19.8141 13.2462 19.7693C13.1641 19.7244 13.0987 19.6673 13.05 19.5981C13.0013 19.5289 12.975 19.441 12.9712 19.3346L12.9423 18ZM14 18.35C15.1833 17.35 16.1458 16.1792 16.8875 14.8375C17.6292 13.4958 18 12.05 18 10.5C18 8.68333 17.3708 7.14583 16.1125 5.8875C14.8542 4.62917 13.3167 4 11.5 4C9.68333 4 8.14583 4.62917 6.8875 5.8875C5.62917 7.14583 5 8.68333 5 10.5C5 12.3167 5.62917 13.8542 6.8875 15.1125C8.14583 16.3708 9.68333 17 11.5 17H14V18.35ZM11.5357 15.5712C11.7401 15.5712 11.9135 15.499 12.0558 15.3547C12.1981 15.2104 12.2692 15.0361 12.2692 14.8316C12.2692 14.6272 12.1971 14.4539 12.0528 14.3116C11.9085 14.1692 11.7341 14.0981 11.5297 14.0981C11.3253 14.0981 11.1519 14.1702 11.0096 14.3145C10.8673 14.4588 10.7962 14.6332 10.7962 14.8376C10.7962 15.042 10.8683 15.2154 11.0126 15.3577C11.1569 15.5 11.3313 15.5712 11.5357 15.5712ZM9.45885 8.20193C9.57475 8.24679 9.69032 8.24388 9.80557 8.19318C9.92082 8.14246 10.0151 8.06076 10.0885 7.94807C10.2256 7.72244 10.4199 7.54263 10.6712 7.40865C10.9224 7.27468 11.2115 7.2077 11.5384 7.2077C12.0296 7.2077 12.4287 7.33623 12.7357 7.59328C13.0427 7.85033 13.1962 8.1974 13.1962 8.6345C13.1962 8.90508 13.1304 9.15833 12.999 9.39423C12.8676 9.63013 12.6436 9.90641 12.3269 10.2231C11.8974 10.641 11.5891 10.9997 11.4019 11.299C11.2147 11.5984 11.1212 11.8891 11.1212 12.1712C11.1212 12.3022 11.1641 12.4141 11.2499 12.5069C11.3358 12.5997 11.4393 12.6462 11.5605 12.6462C11.6817 12.6462 11.7833 12.6 11.8654 12.5077C11.9474 12.4154 11.9962 12.3013 12.0115 12.1654C12.0436 11.959 12.1551 11.7295 12.3462 11.4769C12.5372 11.2244 12.7692 10.9615 13.0423 10.6885C13.418 10.3128 13.6869 9.95855 13.849 9.62565C14.0112 9.29273 14.0923 8.95983 14.0923 8.62693C14.0923 7.94121 13.8554 7.38965 13.3817 6.97225C12.908 6.55485 12.3064 6.34615 11.5769 6.34615C11.0865 6.34615 10.6344 6.4657 10.2206 6.7048C9.80688 6.9439 9.49623 7.22924 9.2887 7.56082C9.21547 7.69591 9.19391 7.82532 9.22403 7.94905C9.25416 8.07277 9.33243 8.15706 9.45885 8.20193Z" fill="#484644"/>
</g>
</svg>
