<svg width="24" height="24" viewBox="0 0 24 24" fill="none" xmlns="http://www.w3.org/2000/svg">
<mask id="mask0_1_46" style="mask-type:alpha" maskUnits="userSpaceOnUse" x="0" y="0" width="24" height="24">
<rect width="24" height="24" fill="#D9D9D9"/>
</mask>
<g mask="url(#mask0_1_46)">
<path d="M10.775 13C10.4934 13 10.2621 12.8923 10.0811 12.6769C9.90011 12.4616 9.83204 12.2103 9.87693 11.9231L10.0808 10.6231C10.1628 10.15 10.3881 9.76123 10.7567 9.45675C11.1253 9.15225 11.5412 9 12.0044 9C12.4784 9 12.8997 9.15225 13.2683 9.45675C13.6369 9.76123 13.8622 10.15 13.9442 10.6231L14.1481 11.9231C14.193 12.2103 14.1249 12.4616 13.9439 12.6769C13.7629 12.8923 13.5316 13 13.25 13H10.775ZM10.875 12H13.15L12.95 10.775C12.9167 10.5417 12.8083 10.3542 12.625 10.2125C12.4417 10.0709 12.2333 10 12 10C11.7667 10 11.5625 10.0709 11.3875 10.2125C11.2125 10.3542 11.1083 10.5417 11.075 10.775L10.875 12ZM3.75612 13.6865C3.48666 13.7032 3.25061 13.6517 3.04798 13.5319C2.84534 13.4122 2.71333 13.2265 2.65193 12.975C2.61859 12.8635 2.61346 12.7551 2.63653 12.65C2.65961 12.5449 2.69166 12.4427 2.73267 12.3436C2.73267 12.356 2.72434 12.3312 2.70767 12.2692C2.68717 12.2359 2.62948 12.0936 2.5346 11.8423C2.5141 11.6936 2.53305 11.5558 2.59145 11.4288C2.64985 11.3019 2.72577 11.1923 2.81922 11.1C2.83204 11.1 2.8423 11.0898 2.85 11.0692C2.87448 10.8446 2.96938 10.6554 3.1347 10.5017C3.30002 10.348 3.49807 10.2712 3.72885 10.2712C3.74038 10.2712 3.85384 10.2917 4.06923 10.3327L4.125 10.3269C4.18268 10.2628 4.25768 10.2147 4.35 10.1827C4.4423 10.1506 4.54037 10.1346 4.64422 10.1346C4.77719 10.1346 4.89505 10.1542 4.9978 10.1933C5.10055 10.2324 5.18157 10.299 5.24087 10.3933C5.25272 10.3933 5.26162 10.3966 5.26755 10.4034C5.27348 10.4101 5.28238 10.4135 5.29423 10.4135C5.45064 10.4301 5.59305 10.4821 5.72145 10.5693C5.84985 10.6565 5.94462 10.7757 6.00577 10.9269C6.02629 11.018 6.03558 11.0984 6.03365 11.1683C6.03173 11.2382 6.01411 11.3103 5.98078 11.3846C5.98078 11.3885 5.98911 11.4154 6.00577 11.4654C6.09679 11.5564 6.16282 11.6471 6.20385 11.7375C6.24487 11.8279 6.26538 11.9289 6.26538 12.0404C6.26538 12.0686 6.23461 12.1923 6.17308 12.4115C6.16923 12.4192 6.16923 12.4462 6.17308 12.4923C6.18589 12.5308 6.19615 12.6257 6.20385 12.7769C6.20385 13.0266 6.09915 13.2407 5.88975 13.419C5.68035 13.5974 5.42607 13.6865 5.12692 13.6865H3.75612ZM19.5278 13.7692C19.1387 13.7692 18.8029 13.6291 18.5202 13.3488C18.2375 13.0684 18.0962 12.7314 18.0962 12.3378C18.0962 12.1947 18.1167 12.0616 18.1578 11.9387C18.1988 11.8159 18.2546 11.6959 18.325 11.5788L17.8234 11.1432C17.7039 11.0503 17.683 10.9327 17.7605 10.7904C17.8381 10.6481 17.9484 10.5769 18.0916 10.5769H19.523C19.9167 10.5769 20.2516 10.7155 20.5279 10.9927C20.8042 11.2699 20.9423 11.6031 20.9423 11.9923V12.3462C20.9423 12.7295 20.8038 13.0625 20.5268 13.3452C20.2498 13.6279 19.9168 13.7692 19.5278 13.7692ZM1 16.8462V16.7135C1 16.0955 1.32631 15.5849 1.97892 15.1817C2.63156 14.7785 3.47851 14.5769 4.51978 14.5769C4.71044 14.5769 4.89295 14.5843 5.0673 14.599C5.24167 14.6138 5.40769 14.6378 5.56538 14.6712C5.42179 14.9276 5.3109 15.1969 5.2327 15.479C5.15448 15.7612 5.11538 16.0618 5.11538 16.3808V17.5769H1.73078C1.52373 17.5769 1.35017 17.5069 1.2101 17.3668C1.07003 17.2268 1 17.0532 1 16.8462ZM7 16.7692V16.4519C7 15.625 7.46229 14.968 8.38688 14.4808C9.31148 13.9936 10.5176 13.75 12.0053 13.75C13.5069 13.75 14.7147 13.9936 15.6288 14.4808C16.5429 14.968 17 15.625 17 16.4519V16.7692C17 16.9981 16.9226 17.1899 16.7678 17.3447C16.613 17.4995 16.4212 17.5769 16.1923 17.5769H7.81563C7.57828 17.5769 7.383 17.4995 7.2298 17.3447C7.0766 17.1899 7 16.9981 7 16.7692ZM19.5 14.5769C20.55 14.5769 21.3958 14.7785 22.0375 15.1817C22.6792 15.5849 23 16.0955 23 16.7135V16.8462C23 17.0532 22.93 17.2268 22.7899 17.3668C22.6498 17.5069 22.4763 17.5769 22.2692 17.5769H18.8846V16.3778C18.8846 16.058 18.8497 15.7577 18.7798 15.4769C18.7099 15.1962 18.6051 14.9276 18.4654 14.6712C18.6231 14.6378 18.7893 14.6138 18.9641 14.599C19.139 14.5843 19.3176 14.5769 19.5 14.5769ZM11.9977 14.75C10.8697 14.75 9.93398 14.9007 9.19038 15.2019C8.44679 15.5032 8.05962 15.891 8.02885 16.3654V16.5769H15.9769V16.3654C15.9423 15.891 15.5574 15.5032 14.8221 15.2019C14.0869 14.9007 13.1454 14.75 11.9977 14.75Z" fill="#484644"/>
</g>
</svg>
