<svg width="24" height="24" viewBox="0 0 24 24" fill="none" xmlns="http://www.w3.org/2000/svg">
<mask id="mask0_3_1182" style="mask-type:alpha" maskUnits="userSpaceOnUse" x="0" y="0" width="24" height="24">
<rect width="24" height="24" fill="#D9D9D9"/>
</mask>
<g mask="url(#mask0_3_1182)">
<path d="M6 18.9999H9.6923V13.9229C9.6923 13.6941 9.76971 13.5023 9.92452 13.3475C10.0793 13.1926 10.2711 13.1152 10.5 13.1152H13.5C13.7289 13.1152 13.9207 13.1926 14.0755 13.3475C14.2303 13.5023 14.3077 13.6941 14.3077 13.9229V18.9999H18V10.3076C18 10.205 17.9776 10.112 17.9327 10.0287C17.8878 9.94538 17.8269 9.87166 17.75 9.80756L12.3654 5.74986C12.2628 5.66011 12.141 5.61523 12 5.61523C11.859 5.61523 11.7372 5.66011 11.6346 5.74986L6.25 9.80756C6.17308 9.87166 6.11218 9.94538 6.0673 10.0287C6.02243 10.112 6 10.205 6 10.3076V18.9999ZM5 18.9999V10.3076C5 10.0518 5.05721 9.80947 5.17163 9.58064C5.28606 9.35179 5.44423 9.16332 5.64615 9.01523L11.0308 4.93831C11.3126 4.72293 11.6346 4.61523 11.9969 4.61523C12.3592 4.61523 12.6833 4.72293 12.9692 4.93831L18.3539 9.01523C18.5558 9.16332 18.7139 9.35179 18.8284 9.58064C18.9428 9.80947 19 10.0518 19 10.3076V18.9999C19 19.2678 18.9003 19.5015 18.701 19.7008C18.5016 19.9002 18.268 19.9999 18 19.9999H14.1154C13.8865 19.9999 13.6947 19.9225 13.5399 19.7677C13.3851 19.6128 13.3077 19.421 13.3077 19.1922V14.1153H10.6923V19.1922C10.6923 19.421 10.6149 19.6128 10.4601 19.7677C10.3053 19.9225 10.1135 19.9999 9.88463 19.9999H6C5.73205 19.9999 5.49839 19.9002 5.29902 19.7008C5.09967 19.5015 5 19.2678 5 18.9999Z" fill="#484644"/>
</g>
</svg>
