<svg width="24" height="24" viewBox="0 0 24 24" fill="none" xmlns="http://www.w3.org/2000/svg">
<mask id="mask0_1_23" style="mask-type:alpha" maskUnits="userSpaceOnUse" x="0" y="0" width="24" height="24">
<rect width="24" height="24" fill="#D9D9D9"/>
</mask>
<g mask="url(#mask0_1_23)">
<path d="M12 14.373C11.8923 14.373 11.7929 14.3554 11.7019 14.3202C11.6109 14.2849 11.5218 14.2237 11.4346 14.1365L7.04615 9.74804C6.95256 9.65445 6.90256 9.53971 6.89615 9.40381C6.88973 9.26791 6.93973 9.14675 7.04615 9.04034C7.15256 8.93394 7.27051 8.88074 7.4 8.88074C7.52948 8.88074 7.64743 8.93394 7.75385 9.04034L12 13.2865L16.2461 9.04034C16.3397 8.94675 16.4545 8.89675 16.5904 8.89034C16.7263 8.88394 16.8474 8.93394 16.9538 9.04034C17.0603 9.14675 17.1135 9.2647 17.1135 9.39419C17.1135 9.52369 17.0603 9.64164 16.9538 9.74804L12.5654 14.1365C12.4782 14.2237 12.3891 14.2849 12.2981 14.3202C12.2071 14.3554 12.1077 14.373 12 14.373Z" fill="#1C1B1F"/>
</g>
</svg>
