<svg width="24" height="24" viewBox="0 0 24 24" fill="none" xmlns="http://www.w3.org/2000/svg">
<mask id="mask0_0_185" style="mask-type:alpha" maskUnits="userSpaceOnUse" x="0" y="0" width="24" height="24">
<rect width="24" height="24" fill="#D9D9D9"/>
</mask>
<g mask="url(#mask0_0_185)">
<path d="M11.0577 17C10.916 17 10.7973 16.952 10.7015 16.8561C10.6056 16.7601 10.5577 16.6412 10.5577 16.4993C10.5577 16.3575 10.6056 16.2388 10.7015 16.1433C10.7973 16.0478 10.916 16 11.0577 16H12.9231C13.0647 16 13.1835 16.048 13.2793 16.144C13.3752 16.2399 13.4231 16.3588 13.4231 16.5007C13.4231 16.6425 13.3752 16.7612 13.2793 16.8567C13.1835 16.9522 13.0647 17 12.9231 17H11.0577ZM7.3077 12.5C7.16603 12.5 7.04728 12.452 6.95145 12.3561C6.8556 12.2601 6.80768 12.1412 6.80768 11.9993C6.80768 11.8575 6.8556 11.7388 6.95145 11.6433C7.04728 11.5478 7.16603 11.5 7.3077 11.5H16.6731C16.8147 11.5 16.9335 11.548 17.0293 11.6439C17.1252 11.7399 17.1731 11.8588 17.1731 12.0007C17.1731 12.1425 17.1252 12.2612 17.0293 12.3567C16.9335 12.4522 16.8147 12.5 16.6731 12.5H7.3077ZM4.5 8C4.35833 8 4.23958 7.95202 4.14375 7.85605C4.04792 7.76008 4 7.64118 4 7.49933C4 7.35746 4.04792 7.23878 4.14375 7.14328C4.23958 7.04776 4.35833 7 4.5 7H19.5C19.6417 7 19.7604 7.04798 19.8562 7.14395C19.9521 7.2399 20 7.35881 20 7.50067C20 7.64252 19.9521 7.76121 19.8562 7.85672C19.7604 7.95224 19.6417 8 19.5 8H4.5Z" fill="#484644"/>
</g>
</svg>
