<svg width="24" height="24" viewBox="0 0 24 24" fill="none" xmlns="http://www.w3.org/2000/svg">
<mask id="mask0_0_238" style="mask-type:alpha" maskUnits="userSpaceOnUse" x="0" y="0" width="24" height="24">
<rect width="24" height="24" fill="#D9D9D9"/>
</mask>
<g mask="url(#mask0_0_238)">
<path d="M5.5 18.7692C5.35833 18.7692 5.23958 18.7212 5.14375 18.6253C5.04792 18.5293 5 18.4104 5 18.2686C5 18.1267 5.04792 18.008 5.14375 17.9125C5.23958 17.817 5.35833 17.7692 5.5 17.7692H6.61537V9.84615C6.61537 8.53975 7.02884 7.39072 7.85577 6.39905C8.68269 5.40737 9.73077 4.78973 11 4.54615V4C11 3.72222 11.097 3.4861 11.291 3.29165C11.485 3.09722 11.7206 3 11.9978 3C12.2749 3 12.5112 3.09722 12.7067 3.29165C12.9022 3.4861 13 3.72222 13 4V4.54615C14.2692 4.78973 15.3173 5.40737 16.1442 6.39905C16.9712 7.39072 17.3846 8.53975 17.3846 9.84615V17.7692H18.5C18.6417 17.7692 18.7604 17.8172 18.8562 17.9132C18.9521 18.0091 19 18.1281 19 18.2699C19 18.4118 18.9521 18.5305 18.8562 18.626C18.7604 18.7215 18.6417 18.7692 18.5 18.7692H5.5ZM11.9966 21.3846C11.5514 21.3846 11.1715 21.2265 10.8567 20.9101C10.542 20.5938 10.3846 20.2135 10.3846 19.7692H13.6154C13.6154 20.2167 13.4569 20.5978 13.1399 20.9125C12.8229 21.2273 12.4418 21.3846 11.9966 21.3846ZM7.61537 17.7692H16.3846V9.84615C16.3846 8.63077 15.9577 7.59615 15.1039 6.7423C14.25 5.88847 13.2154 5.46155 12 5.46155C10.7846 5.46155 9.75 5.88847 8.89615 6.7423C8.0423 7.59615 7.61537 8.63077 7.61537 9.84615V17.7692Z" fill="#484644"/>
</g>
</svg>
